<?xml version="1.0" ?><svg height="96px" version="1.1" viewBox="0 0 96 96" width="96px" xmlns="http://www.w3.org/2000/svg" xmlns:xlink="http://www.w3.org/1999/xlink"><title/><desc/><defs/><g fill="none" fill-rule="evenodd" id="Sushi-Icons-Outlines" stroke="none" stroke-width="1"><g id="Jentelman"><g id="legs" stroke="#3F2C3D" stroke-linecap="round" stroke-width="2" transform="translate(22.000000, 82.000000)"><g id="right-leg" transform="translate(44.000000, 0.000000)"><path d="M4,0 L4,6" id="Stroke-257"/><path d="M0,6 L4,6" id="Stroke-259"/></g><g id="left-leg"><path d="M4,0 L4,6" id="Stroke-261"/><path d="M0,6 L4,6" id="Stroke-263"/></g></g><g fill="#3F2C3D" id="body" transform="translate(25.000000, 13.000000)"><path d="M45,65 C45.552,65 46,64.552 46,64 L46,6 C46,5.448 45.552,5 45,5 C44.448,5 44,5.448 44,6 L44,63 L6,63 C5.448,63 5,63.448 5,64 C5,64.552 5.448,65 6,65 L45,65 Z" id="Fill-265"/><path d="M1,0 C0.448,0 0,0.448 0,1 L0,64 C0,64.552 0.448,65 1,65 C1.552,65 2,64.552 2,64 L2,2 L10,2 C10.552,2 11,1.552 11,1 C11,0.448 10.552,0 10,0 L1,0 Z" id="Fill-267"/><path d="M45,0 L36,0 C35.448,0 35,0.448 35,1 C35,1.552 35.448,2 36,2 L44,2 L45,2 C45.552,2 46,1.552 46,1 C46,0.448 45.552,0 45,0" id="Fill-269"/></g><g id="head" transform="translate(29.000000, 8.000000)"><g id="eyes" stroke="#3F2C3D" stroke-linecap="round" stroke-width="2" transform="translate(4.000000, 20.000000)"><path d="M0,0.0833 C0,0.0833 3.875,4.3953 8,0.0833" id="Stroke-271"/><path d="M22,0.0833 C22,0.0833 25.875,4.3953 30,0.0833" id="Stroke-273"/></g><path d="M15.5,20.5 C15.5,24.642 12.142,28 8,28 C3.858,28 0.5,24.642 0.5,20.5 C0.5,16.358 3.858,13 8,13 C12.142,13 15.5,16.358 15.5,20.5 L15.5,20.5 Z" id="glasses" stroke="#3F2C3D" stroke-linecap="round" stroke-width="2"/><path d="M15,39.0833 C15,39.0833 18.875,43.3953 23,39.0833" id="mouth" stroke="#3F2C3D" stroke-linecap="round" stroke-width="2"/><g fill="#3F2C3D" id="mustache" transform="translate(2.000000, 31.000000)"><path d="M5.7891,7.899 C3.7141,7.899 2.0741,6.478 2.0001,6.412 C1.1951,5.61 0.7781,4.644 0.7781,3.648 C0.7781,2.9 1.0831,2.474 1.3401,2.249 C1.7551,1.885 2.3881,1.926 2.7511,2.34 C3.0761,2.709 3.0791,3.25 2.7831,3.622 C2.7901,4.13 3.0031,4.59 3.3681,4.954 L3.3671,4.954 C3.3711,4.955 4.6891,6.053 6.0821,5.881 C6.8581,5.787 7.5651,5.296 8.1841,4.422 C11.2811,0.05 14.8491,0 15.0001,0 C15.5521,0 16.0001,0.448 16.0001,1 C16.0001,1.549 15.5571,1.995 15.0091,2 C14.8721,2.003 12.2651,2.12 9.8161,5.578 C8.8521,6.938 7.6711,7.709 6.3041,7.869 C6.1301,7.889 5.9581,7.899 5.7891,7.899" id="Fill-279"/><path d="M28.4737,7.869 C27.1067,7.709 25.9257,6.939 24.9617,5.578 C22.5127,2.12 19.9057,2.003 19.7687,2 C19.2207,1.995 18.7777,1.549 18.7777,1 C18.7777,0.448 19.2257,0 19.7777,0 C19.9287,0 23.4967,0.05 26.5937,4.422 C27.2127,5.296 27.9197,5.787 28.6957,5.881 C30.0887,6.053 31.4067,4.955 31.4107,4.954 L31.4097,4.954 C31.7747,4.59 31.9877,4.13 31.9947,3.622 C31.6987,3.251 31.7017,2.709 32.0267,2.34 C32.3897,1.926 33.0227,1.885 33.4377,2.249 C33.6947,2.474 33.9997,2.9 33.9997,3.648 C33.9997,4.644 33.5827,5.61 32.7777,6.412 C32.7037,6.478 31.0637,7.899 28.9887,7.899 C28.8197,7.899 28.6477,7.889 28.4737,7.869" id="Fill-281"/></g><g fill="#3F2C3D" id="hat" transform="translate(10.000000, 0.000000)"><path d="M16.9184,9 L1.0004,9 C0.4474,9 0.0004,8.552 0.0004,8 L0.0004,5 C0.0004,4.448 0.4474,4 1.0004,4 L16.9184,4 C17.4704,4 17.9184,4.448 17.9184,5 L17.9184,8 C17.9184,8.552 17.4704,9 16.9184,9" id="Fill-283"/><path d="M13,4 L5,4 L5,1 C5,0.448 5.448,0 6,0 L12,0 C12.552,0 13,0.448 13,1 L13,4 Z" id="Fill-285"/></g></g><g id="hands" stroke="#3F2C3D" stroke-linecap="round" stroke-width="2" transform="translate(16.000000, 45.000000)"><g id="left-hand"><path d="M10,0 L1.072,4.464 C0.514,4.743 0.345,5.459 0.719,5.959 L5,13" id="Stroke-287"/><path d="M8,17 C8,17.552 8.448,18 9,18 C9.552,18 10,17.552 10,17 C10,16.448 9.552,16 9,16 C8.448,16 8,16.448 8,17 L8,17 Z" id="Stroke-289"/></g><g id="right-hand" transform="translate(54.000000, 0.000000)"><path d="M0,0 L8.928,4.464 C9.486,4.743 9.655,5.459 9.281,5.959 L5,13" id="Stroke-291"/><path d="M0,17 C0,17.552 0.448,18 1,18 C1.552,18 2,17.552 2,17 C2,16.448 1.552,16 1,16 C0.448,16 0,16.448 0,17 L0,17 Z" id="Stroke-293"/></g></g></g></g></svg>